<mxfile host="app.diagrams.net" modified="2023-11-22T12:07:07.874Z" agent="Mozilla/5.0 (X11; Ubuntu; Linux x86_64; rv:109.0) Gecko/20100101 Firefox/119.0" etag="XZ-9n20zc8UKjz4-AyuL" version="22.1.3" type="device">
  <diagram name="Page-1" id="a23EL5Hix1XRtugE74H5">
    <mxGraphModel dx="1364" dy="795" grid="1" gridSize="10" guides="1" tooltips="1" connect="1" arrows="1" fold="1" page="1" pageScale="1" pageWidth="850" pageHeight="1100" math="0" shadow="0">
      <root>
        <mxCell id="0" />
        <mxCell id="1" parent="0" />
        <mxCell id="pDNr191spyzJsZ-jqsNp-1" value="&lt;b style=&quot;font-size: 16px;&quot;&gt;Towing UHAA&lt;br&gt;&lt;/b&gt;" style="ellipse;whiteSpace=wrap;html=1;" parent="1" vertex="1">
          <mxGeometry x="176.19" y="183.25" width="120" height="80" as="geometry" />
        </mxCell>
        <mxCell id="pDNr191spyzJsZ-jqsNp-2" value="" style="shape=image;verticalLabelPosition=bottom;labelBackgroundColor=default;verticalAlign=top;aspect=fixed;imageAspect=0;image=https://d1nhio0ox7pgb.cloudfront.net/_img/i_collection_png/512x512/plain/airship.png;" parent="1" vertex="1">
          <mxGeometry x="387.25" y="120" width="206.5" height="206.5" as="geometry" />
        </mxCell>
        <mxCell id="pDNr191spyzJsZ-jqsNp-3" value="" style="shape=flexArrow;endArrow=classic;html=1;rounded=0;exitX=1;exitY=0.5;exitDx=0;exitDy=0;entryX=0;entryY=0.5;entryDx=0;entryDy=0;" parent="1" source="pDNr191spyzJsZ-jqsNp-1" target="pDNr191spyzJsZ-jqsNp-2" edge="1">
          <mxGeometry width="50" height="50" relative="1" as="geometry">
            <mxPoint x="400" y="440" as="sourcePoint" />
            <mxPoint x="450" y="390" as="targetPoint" />
          </mxGeometry>
        </mxCell>
        <mxCell id="pDNr191spyzJsZ-jqsNp-5" value="" style="shape=flexArrow;endArrow=classic;startArrow=classic;html=1;rounded=0;entryX=0.5;entryY=1;entryDx=0;entryDy=0;" parent="1" target="pDNr191spyzJsZ-jqsNp-2" edge="1">
          <mxGeometry width="100" height="100" relative="1" as="geometry">
            <mxPoint x="491" y="440" as="sourcePoint" />
            <mxPoint x="640" y="360" as="targetPoint" />
          </mxGeometry>
        </mxCell>
        <mxCell id="pDNr191spyzJsZ-jqsNp-6" value="" style="shape=image;verticalLabelPosition=bottom;labelBackgroundColor=default;verticalAlign=top;aspect=fixed;imageAspect=0;image=https://previews.123rf.com/images/hedgehogvector/hedgehogvector1801/hedgehogvector180100087/93807013-sport-equipment-simple-stadium-icon.jpg;" parent="1" vertex="1">
          <mxGeometry x="405.5" y="450" width="170" height="170" as="geometry" />
        </mxCell>
        <mxCell id="pDNr191spyzJsZ-jqsNp-7" value="" style="shape=image;verticalLabelPosition=bottom;labelBackgroundColor=default;verticalAlign=top;aspect=fixed;imageAspect=0;image=https://cdn-icons-png.flaticon.com/512/1679/1679856.png;" parent="1" vertex="1">
          <mxGeometry x="660" y="63.5" width="122" height="122" as="geometry" />
        </mxCell>
        <mxCell id="pDNr191spyzJsZ-jqsNp-8" value="" style="shape=image;verticalLabelPosition=bottom;labelBackgroundColor=default;verticalAlign=top;aspect=fixed;imageAspect=0;image=https://cdn-icons-png.flaticon.com/512/5265/5265188.png;" parent="1" vertex="1">
          <mxGeometry x="620" y="460" width="102" height="102" as="geometry" />
        </mxCell>
        <mxCell id="pDNr191spyzJsZ-jqsNp-9" value="" style="shape=flexArrow;endArrow=classic;startArrow=classic;html=1;rounded=0;exitX=1;exitY=0.5;exitDx=0;exitDy=0;entryX=0;entryY=0.5;entryDx=0;entryDy=0;" parent="1" source="pDNr191spyzJsZ-jqsNp-8" target="pDNr191spyzJsZ-jqsNp-11" edge="1">
          <mxGeometry width="100" height="100" relative="1" as="geometry">
            <mxPoint x="430" y="460" as="sourcePoint" />
            <mxPoint x="830" y="535" as="targetPoint" />
          </mxGeometry>
        </mxCell>
        <mxCell id="pDNr191spyzJsZ-jqsNp-10" value="" style="shape=flexArrow;endArrow=classic;startArrow=classic;html=1;rounded=0;entryX=1;entryY=0.75;entryDx=0;entryDy=0;exitX=0.25;exitY=0;exitDx=0;exitDy=0;" parent="1" source="pDNr191spyzJsZ-jqsNp-8" target="pDNr191spyzJsZ-jqsNp-2" edge="1">
          <mxGeometry width="100" height="100" relative="1" as="geometry">
            <mxPoint x="430" y="460" as="sourcePoint" />
            <mxPoint x="530" y="360" as="targetPoint" />
          </mxGeometry>
        </mxCell>
        <mxCell id="pDNr191spyzJsZ-jqsNp-11" value="" style="shape=image;verticalLabelPosition=bottom;labelBackgroundColor=default;verticalAlign=top;aspect=fixed;imageAspect=0;image=https://t3.ftcdn.net/jpg/04/89/65/74/360_F_489657418_g0RwltROj4rVEEgox49tsJoww1uaA725.jpg;" parent="1" vertex="1">
          <mxGeometry x="853" y="510.00000000000006" width="167" height="163.81" as="geometry" />
        </mxCell>
        <mxCell id="pDNr191spyzJsZ-jqsNp-12" value="" style="shape=image;verticalLabelPosition=bottom;labelBackgroundColor=default;verticalAlign=top;aspect=fixed;imageAspect=0;image=https://t4.ftcdn.net/jpg/03/84/53/33/360_F_384533315_K8ndueeIZGsmfgmt3ixPeiclsY1sonAy.jpg;" parent="1" vertex="1">
          <mxGeometry x="850" y="216" width="170" height="170" as="geometry" />
        </mxCell>
        <mxCell id="pDNr191spyzJsZ-jqsNp-15" value="" style="shape=flexArrow;endArrow=classic;startArrow=classic;html=1;rounded=0;entryX=0.5;entryY=1;entryDx=0;entryDy=0;exitX=0.5;exitY=0;exitDx=0;exitDy=0;" parent="1" source="pDNr191spyzJsZ-jqsNp-11" target="pDNr191spyzJsZ-jqsNp-12" edge="1">
          <mxGeometry width="100" height="100" relative="1" as="geometry">
            <mxPoint x="770" y="460" as="sourcePoint" />
            <mxPoint x="870" y="360" as="targetPoint" />
          </mxGeometry>
        </mxCell>
        <mxCell id="pDNr191spyzJsZ-jqsNp-16" value="" style="shape=flexArrow;endArrow=classic;startArrow=classic;html=1;rounded=0;entryX=0;entryY=0.25;entryDx=0;entryDy=0;exitX=0.5;exitY=1;exitDx=0;exitDy=0;" parent="1" source="pDNr191spyzJsZ-jqsNp-7" target="pDNr191spyzJsZ-jqsNp-12" edge="1">
          <mxGeometry width="100" height="100" relative="1" as="geometry">
            <mxPoint x="770" y="460" as="sourcePoint" />
            <mxPoint x="870" y="360" as="targetPoint" />
          </mxGeometry>
        </mxCell>
        <mxCell id="W298PDWMhgbtjIkma1gu-1" value="&lt;font style=&quot;font-size: 15px;&quot;&gt;Global network&lt;br&gt;&lt;/font&gt;" style="edgeLabel;html=1;align=center;verticalAlign=middle;resizable=0;points=[];rotation=30;" vertex="1" connectable="0" parent="pDNr191spyzJsZ-jqsNp-16">
          <mxGeometry x="-0.1428" y="6" relative="1" as="geometry">
            <mxPoint x="-20" y="28" as="offset" />
          </mxGeometry>
        </mxCell>
        <mxCell id="W298PDWMhgbtjIkma1gu-2" value="&lt;font style=&quot;font-size: 16px;&quot;&gt;Retransmitter&lt;/font&gt;" style="text;html=1;align=center;verticalAlign=middle;resizable=0;points=[];autosize=1;strokeColor=none;fillColor=none;" vertex="1" parent="1">
          <mxGeometry x="611" y="570" width="120" height="30" as="geometry" />
        </mxCell>
        <mxCell id="W298PDWMhgbtjIkma1gu-3" value="&lt;font style=&quot;font-size: 16px;&quot;&gt;Communication Tower&lt;br&gt;&lt;/font&gt;" style="text;html=1;strokeColor=none;fillColor=none;align=center;verticalAlign=middle;whiteSpace=wrap;rounded=0;" vertex="1" parent="1">
          <mxGeometry x="830" y="670" width="210" height="30" as="geometry" />
        </mxCell>
        <mxCell id="W298PDWMhgbtjIkma1gu-4" value="&lt;font style=&quot;font-size: 15px;&quot;&gt;Sensors Data&lt;br&gt;&lt;/font&gt;" style="text;html=1;align=center;verticalAlign=middle;resizable=0;points=[];autosize=1;strokeColor=none;fillColor=none;rotation=75;" vertex="1" parent="1">
          <mxGeometry x="580" y="340" width="110" height="30" as="geometry" />
        </mxCell>
        <mxCell id="W298PDWMhgbtjIkma1gu-7" value="" style="shape=image;verticalLabelPosition=bottom;labelBackgroundColor=default;verticalAlign=top;aspect=fixed;imageAspect=0;image=https://static.thenounproject.com/png/3162143-200.png;" vertex="1" parent="1">
          <mxGeometry x="160" y="420" width="136.19" height="136.19" as="geometry" />
        </mxCell>
        <mxCell id="W298PDWMhgbtjIkma1gu-8" value="&lt;font style=&quot;font-size: 15px;&quot;&gt;Stakeholders&#39; Expectations&lt;br&gt;&lt;/font&gt;" style="text;html=1;align=center;verticalAlign=middle;resizable=0;points=[];autosize=1;strokeColor=none;fillColor=none;" vertex="1" parent="1">
          <mxGeometry x="128.1" y="556.1899999999999" width="200" height="30" as="geometry" />
        </mxCell>
        <mxCell id="W298PDWMhgbtjIkma1gu-11" value="" style="shape=flexArrow;endArrow=classic;html=1;rounded=0;exitX=0.75;exitY=0;exitDx=0;exitDy=0;entryX=-0.025;entryY=0.872;entryDx=0;entryDy=0;entryPerimeter=0;" edge="1" parent="1" source="W298PDWMhgbtjIkma1gu-7" target="pDNr191spyzJsZ-jqsNp-2">
          <mxGeometry width="50" height="50" relative="1" as="geometry">
            <mxPoint x="670" y="440" as="sourcePoint" />
            <mxPoint x="720" y="390" as="targetPoint" />
          </mxGeometry>
        </mxCell>
        <mxCell id="W298PDWMhgbtjIkma1gu-12" value="&lt;font style=&quot;font-size: 15px;&quot;&gt;Payload&lt;/font&gt;" style="text;html=1;align=center;verticalAlign=middle;resizable=0;points=[];autosize=1;strokeColor=none;fillColor=none;rotation=-46;" vertex="1" parent="1">
          <mxGeometry x="248.1" y="350" width="80" height="30" as="geometry" />
        </mxCell>
        <mxCell id="W298PDWMhgbtjIkma1gu-13" value="&lt;font style=&quot;font-size: 14px;&quot;&gt;5G&lt;/font&gt;" style="text;html=1;align=center;verticalAlign=middle;resizable=0;points=[];autosize=1;strokeColor=none;fillColor=none;" vertex="1" parent="1">
          <mxGeometry x="450" y="370" width="40" height="30" as="geometry" />
        </mxCell>
        <mxCell id="W298PDWMhgbtjIkma1gu-14" value="&lt;font style=&quot;font-size: 15px;&quot;&gt;Control Comands&lt;br&gt;&lt;/font&gt;" style="text;html=1;align=center;verticalAlign=middle;resizable=0;points=[];autosize=1;strokeColor=none;fillColor=none;rotation=73;" vertex="1" parent="1">
          <mxGeometry x="535" y="356" width="140" height="30" as="geometry" />
        </mxCell>
      </root>
    </mxGraphModel>
  </diagram>
</mxfile>
